<mxfile host="app.diagrams.net" agent="Mozilla/5.0 (Windows NT 10.0; Win64; x64; rv:137.0) Gecko/20100101 Firefox/137.0" version="26.2.12">
  <diagram name="第 1 页" id="kBb--a_ktQDg-oNDzyqh">
    <mxGraphModel dx="911" dy="485" grid="1" gridSize="10" guides="1" tooltips="1" connect="1" arrows="1" fold="1" page="1" pageScale="1" pageWidth="827" pageHeight="1169" math="0" shadow="0">
      <root>
        <mxCell id="0" />
        <mxCell id="1" parent="0" />
        <mxCell id="4Vhovje-M4J-kTaeHIU8-1" value="header 顶部导航栏（定高）" style="rounded=0;whiteSpace=wrap;html=1;" vertex="1" parent="1">
          <mxGeometry x="90" y="200" width="430" height="40" as="geometry" />
        </mxCell>
        <mxCell id="4Vhovje-M4J-kTaeHIU8-2" value="&lt;div&gt;content&lt;/div&gt;&lt;div&gt;内容区&lt;/div&gt;&lt;div&gt;（长宽自适应）&lt;/div&gt;" style="rounded=0;whiteSpace=wrap;html=1;" vertex="1" parent="1">
          <mxGeometry x="180" y="240" width="250" height="210" as="geometry" />
        </mxCell>
        <mxCell id="4Vhovje-M4J-kTaeHIU8-3" value="&lt;div&gt;left&lt;/div&gt;&lt;div&gt;侧边栏&lt;/div&gt;&lt;div&gt;（定宽）&lt;/div&gt;" style="rounded=0;whiteSpace=wrap;html=1;" vertex="1" parent="1">
          <mxGeometry x="90" y="240" width="90" height="210" as="geometry" />
        </mxCell>
        <mxCell id="4Vhovje-M4J-kTaeHIU8-4" value="&lt;div&gt;right&lt;/div&gt;&lt;div&gt;侧边栏&lt;/div&gt;&lt;div&gt;（定宽）&lt;/div&gt;" style="rounded=0;whiteSpace=wrap;html=1;" vertex="1" parent="1">
          <mxGeometry x="430" y="240" width="90" height="210" as="geometry" />
        </mxCell>
        <mxCell id="4Vhovje-M4J-kTaeHIU8-5" value="footer 底部栏 （定高）" style="rounded=0;whiteSpace=wrap;html=1;" vertex="1" parent="1">
          <mxGeometry x="90" y="450" width="430" height="40" as="geometry" />
        </mxCell>
      </root>
    </mxGraphModel>
  </diagram>
</mxfile>
